<svg width="31" height="31" viewBox="0 0 31 31" fill="none" xmlns="http://www.w3.org/2000/svg">
<line y1="-0.5" x2="14.9144" y2="-0.5" transform="matrix(0.695889 0.71815 -0.695889 0.71815 10 10)" stroke="black"/>
<line y1="-0.5" x2="14.9144" y2="-0.5" transform="matrix(0.695889 0.71815 -0.695889 0.71815 10 10)" stroke="black"/>
<line y1="-0.5" x2="14.9144" y2="-0.5" transform="matrix(0.695889 0.71815 -0.695889 0.71815 10 10)" stroke="black"/>
<line y1="-0.5" x2="14.9144" y2="-0.5" transform="matrix(0.695889 -0.71815 0.695889 0.71815 10.8262 21)" stroke="black"/>
<line y1="-0.5" x2="14.9144" y2="-0.5" transform="matrix(0.695889 -0.71815 0.695889 0.71815 10.8262 21)" stroke="black"/>
<line y1="-0.5" x2="14.9144" y2="-0.5" transform="matrix(0.695889 -0.71815 0.695889 0.71815 10.8262 21)" stroke="black"/>
<rect x="0.5" y="0.5" width="30" height="30" rx="15" stroke="black"/>
</svg>
